<svg width="120" height="120" viewBox="0 0 120 120" fill="none" xmlns="http://www.w3.org/2000/svg">
<path d="M60 120C93.1371 120 120 93.1371 120 60C120 26.8629 93.1371 0 60 0C26.8629 0 0 26.8629 0 60C0 93.1371 26.8629 120 60 120Z" fill="#348E91"/>
<path d="M76.0383 52.6688C72.2484 35.9426 63.2918 30.443 62.3273 28.3418C61.2726 26.8594 60.2039 24.2227 60.2039 24.2227C60.1863 24.1781 60.1582 24.0996 60.1254 24.0234C60.0164 25.5059 59.9601 26.0777 58.5586 27.573C56.3883 29.2699 45.2531 38.6133 44.3473 57.6164C43.5023 75.3398 57.15 85.9008 58.9957 87.2473L59.2055 87.3961V87.3832C59.2172 87.4723 59.7914 91.602 60.1945 95.9777H61.6406C61.9799 92.8846 62.4885 89.8124 63.1641 86.775L63.2812 86.6988C64.1069 86.1069 64.894 85.463 65.6379 84.7711L65.7223 84.6949C69.6457 81.0703 76.6992 72.6867 76.6301 59.3203C76.6155 57.0907 76.4175 54.866 76.0383 52.6688ZM60.041 77.2406C60.041 77.2406 60.041 52.3828 60.8613 52.3875C61.5012 52.3875 62.3297 84.4512 62.3297 84.4512C61.1906 84.3141 60.041 79.1742 60.041 77.2406Z" fill="white"/>
</svg>
